HIERARCHY
ROOT hip
{
	OFFSET 0.000000 0.000000 0.000000 
	CHANNELS 6 Xposition Yposition Zposition Xrotation Zrotation Yrotation
	JOINT abdomen
	{
		OFFSET 0.000000 3.402643 0.000000 
		CHANNELS 3 Xrotation Zrotation Yrotation
		JOINT chest
		{
			OFFSET 0.000000 8.438565 -0.680529 
			CHANNELS 3 Xrotation Zrotation Yrotation
			JOINT neck
			{
				OFFSET 0.000000 10.207942 -0.272212 
				CHANNELS 3 Xrotation Zrotation Yrotation
				JOINT head
				{
					OFFSET 0.000000 3.130431 0.000000 
					CHANNELS 3 Xrotation Zrotation Yrotation
					End Site
					{
						OFFSET 0.000000 3.130435 0.000000 
					}
				}
			}
			JOINT lCollar
			{
				OFFSET 3.470700 6.669187 -0.816635 
				CHANNELS 3 Yrotation Zrotation Xrotation
				JOINT lShldr
				{
					OFFSET 3.198488 0.000000 0.000000 
					CHANNELS 3 Zrotation Yrotation Xrotation
					JOINT lForeArm
					{
						OFFSET 10.139888 0.000000 0.000000 
						CHANNELS 3 Yrotation Zrotation Xrotation
						JOINT lHand
						{
							OFFSET 8.370511 0.000000 0.000000 
							CHANNELS 3 Zrotation Yrotation Xrotation
							End Site
							{
								OFFSET 4.083176 0.000000 0.000000 
							}
						}
					}
				}
			}
			JOINT rCollar
			{
				OFFSET -3.470700 6.669187 -0.816635 
				CHANNELS 3 Yrotation Zrotation Xrotation
				JOINT rShldr
				{
					OFFSET -3.198488 0.000000 0.000000 
					CHANNELS 3 Zrotation Yrotation Xrotation
					JOINT rForeArm
					{
						OFFSET -10.139888 0.000000 0.000000 
						CHANNELS 3 Yrotation Zrotation Xrotation
						JOINT rHand
						{
							OFFSET -8.370511 0.000000 0.000000 
							CHANNELS 3 Zrotation Yrotation Xrotation
							End Site
							{
								OFFSET -4.083176 0.000000 0.000000 
							}
						}
					}
				}
			}
		}
	}
	JOINT lThigh
	{
		OFFSET 5.308129 -1.633274 1.361059 
		CHANNELS 3 Xrotation Zrotation Yrotation
		JOINT lShin
		{
			OFFSET -2.041588 -20.007561 0.000000 
			CHANNELS 3 Xrotation Zrotation Yrotation
			JOINT lFoot
			{
				OFFSET 0.000000 -19.190928 -1.224953 
				CHANNELS 3 Xrotation Yrotation Zrotation
				End Site
				{
					OFFSET 0.000000 -2.449906 4.627600 
				}
			}
		}
	}
	JOINT rThigh
	{
		OFFSET -5.308129 -1.633274 1.361059 
		CHANNELS 3 Xrotation Zrotation Yrotation
		JOINT rShin
		{
			OFFSET 2.041588 -20.007561 0.000000 
			CHANNELS 3 Xrotation Zrotation Yrotation
			JOINT rFoot
			{
				OFFSET 0.000000 -19.190928 -1.224953 
				CHANNELS 3 Xrotation Yrotation Zrotation
				End Site
				{
					OFFSET 0.000000 -2.449906 4.627600 
				}
			}
		}
	}
}
MOTION
Frames: 15
Frame Time: 0.033333
0.117482 43.792843 0.391712 4.503341 -1.421381 85.610512 0.000000 0.000000 0.000000 2.037752 -4.577195 5.403461 7.098928 -2.888276 -0.236414 -7.119159 0.084602 -13.246475 7.950297 20.571175 21.521383 -110.158241 -22.795013 1.366659 -37.371235 -7.603809 -42.653519 17.575596 10.737332 58.023911 -8.060277 -17.560509 21.872772 90.256157 45.818516 73.724518 13.337795 -0.663099 -55.512711 10.526753 -1.807399 -10.568056 14.216875 -0.516928 16.550091 42.094028 1.411225 -1.474519 0.144049 -0.002639 -22.410410 -5.851462 -2.760124 0.518520 15.786122 2.069543 0.851951 -6.028964 -8.526231 22.260485 
0.157515 43.817448 0.794583 3.390521 -1.891218 86.293961 0.000000 0.000000 0.000000 1.693133 -3.777652 5.591140 6.734614 -2.430830 -0.201762 -6.943364 -0.037633 -13.837187 7.714141 21.709532 21.459372 -111.047180 -22.944788 1.847160 -37.349499 -7.595279 -42.300140 17.199032 10.708862 57.923397 -8.583550 -17.884447 21.647295 90.641312 45.334053 74.048866 13.651359 -1.258761 -54.915264 10.587317 -1.648104 -10.592515 9.300468 2.499638 17.818123 50.926250 3.017467 -1.524165 5.724229 -0.592229 -21.981699 -4.152723 -1.257537 0.903371 15.419909 1.999378 0.851989 -7.359746 -9.381518 21.038862 
0.112227 43.794888 1.184928 2.071807 -2.176312 86.795975 0.000000 0.000000 0.000000 1.720666 -2.703860 5.816873 6.411354 -2.280063 -0.189882 -7.060552 -0.047015 -14.186037 7.723611 22.223719 21.380381 -111.561150 -23.526487 2.115280 -37.500076 -7.808672 -42.571667 17.348679 10.534068 57.929588 -8.720012 -18.339863 21.525351 90.901100 45.291245 74.203644 13.850993 -1.678945 -54.655087 10.694594 -1.652809 -10.614223 4.019212 5.415940 18.940020 59.058411 5.145166 -1.414740 10.408640 -0.145843 -21.093269 -2.326797 0.525480 1.383071 14.953844 1.880835 0.773702 -8.820862 -10.229761 19.803856 
0.017702 43.766575 1.516195 1.016386 -2.216449 87.040421 0.000000 0.000000 0.000000 2.042008 -1.785975 6.010277 6.196863 -2.398975 -0.203598 -7.158229 0.103383 -14.101445 8.103026 22.261553 21.219044 -111.844376 -24.214581 2.271689 -37.703373 -8.109421 -43.096333 17.745918 10.299688 57.986645 -8.462818 -18.842098 21.529354 91.175789 45.591145 74.278877 13.839587 -1.837679 -54.922462 10.767123 -1.952459 -10.659247 -0.976590 7.509551 19.667873 65.408249 7.253410 -1.180792 13.012876 1.121494 -21.091267 -0.244093 1.982126 1.757608 14.343554 1.647423 0.675889 -9.967991 -10.280796 19.445572 
-0.095014 43.769325 1.752169 0.635172 -2.050655 87.086311 0.000000 0.000000 0.000000 2.520321 -1.434159 6.069468 6.110376 -2.708637 -0.223496 -7.100151 0.470057 -13.667310 8.748245 22.199072 20.955952 -112.063942 -24.645409 2.395233 -37.913902 -8.475905 -43.292442 17.692780 10.109564 57.932407 -7.938076 -19.324036 21.638229 91.616875 46.038029 74.416084 13.511059 -1.836830 -55.150249 10.666346 -2.289618 -10.746414 -5.214507 8.328260 19.772497 69.021950 8.753974 -0.950658 13.862378 2.428259 -21.326891 1.982985 2.578586 1.877603 13.688400 1.452587 0.582419 -10.836477 -9.745190 19.864727 
-0.223451 43.816116 1.899250 0.879372 -1.865015 86.953499 0.000000 0.000000 0.000000 2.960196 -1.638437 6.018558 6.151701 -3.113312 -0.249938 -7.042767 0.846343 -13.117866 9.476103 22.219067 20.654472 -112.200340 -24.651833 2.466078 -38.245098 -8.979773 -43.106964 17.248409 10.075955 57.853996 -7.373717 -19.820108 21.763996 92.336525 46.521370 74.699890 12.930446 -1.669092 -54.978859 10.453816 -2.319248 -10.839693 -8.738925 7.975989 19.451799 69.457024 9.475752 -0.807960 14.019601 3.243965 -21.609726 4.107399 2.400330 1.768409 13.156767 1.383896 0.519384 -11.647921 -9.038097 20.706944 
-0.447382 43.975739 2.015816 1.944175 -1.659201 86.378975 0.000000 0.000000 0.000000 3.440616 -2.437011 5.829805 6.304499 -3.999606 -0.318365 -6.976583 1.269934 -12.072726 10.348996 21.811014 20.356050 -111.610947 -24.027550 2.144244 -39.263271 -9.768443 -42.579227 16.616318 10.459324 57.853313 -6.482103 -20.518600 21.994656 93.440384 46.988998 75.200333 12.422318 -1.638054 -54.408264 10.380252 -2.000117 -10.852833 -12.984734 6.695353 18.700190 63.322834 8.539412 -0.826458 12.816223 1.832450 -22.743139 7.344076 1.348022 1.399989 12.343388 1.540903 0.492152 -12.717462 -8.548269 21.615730 
-0.596434 44.050022 2.046045 2.716548 -2.028969 86.241356 0.000000 0.000000 0.000000 3.110113 -3.130158 5.689103 6.425154 -4.383942 -0.350865 -6.919694 1.524350 -11.624369 10.396291 21.537027 20.388577 -111.284576 -23.757881 1.970138 -39.684231 -9.874196 -42.639359 16.600439 10.663808 57.918106 -6.338397 -20.722076 22.015511 93.675072 46.778416 75.372719 12.723267 -2.003976 -54.050228 10.514776 -2.169701 -10.834483 -15.095037 6.023223 18.306074 57.105854 6.764127 -1.003069 10.714264 2.087799 -22.430809 8.299412 0.556797 1.157885 12.357751 1.725908 0.538915 -13.449553 -9.055241 21.682014 
-0.733870 44.112244 2.063690 3.352431 -2.349493 86.297668 0.000000 0.000000 0.000000 2.789135 -3.735816 5.569831 6.515195 -4.593711 -0.363385 -6.871348 1.590591 -11.680359 10.340055 21.163437 20.481777 -111.055321 -23.668793 1.852702 -39.833382 -9.801218 -42.793087 16.801996 10.943392 58.042217 -6.284376 -20.797171 22.026337 93.565506 46.498161 75.376068 12.962869 -2.362125 -53.491039 10.608129 -2.292372 -10.857972 -16.121143 5.360153 17.980909 49.257801 4.587730 -1.124899 8.146845 2.640477 -20.689959 9.565844 -0.126423 0.930296 11.954737 1.852359 0.528344 -14.254314 -9.508324 21.395767 
-0.854428 44.161606 2.085397 3.479613 -2.397920 86.230904 0.000000 0.000000 0.000000 2.799141 -3.804063 5.556094 6.517190 -4.805706 -0.378055 -6.841825 1.562577 -11.847531 10.461418 20.566778 20.538767 -110.701721 -23.710711 1.657193 -39.767616 -9.748036 -42.787331 16.948067 11.062126 58.102528 -6.025770 -20.787434 22.127491 93.296829 46.452621 75.239021 12.822087 -2.563564 -52.673473 10.660801 -2.377869 -10.913127 -15.918167 5.137097 17.924532 40.331940 2.232945 -1.197044 6.049029 3.308539 -18.914488 11.429110 -0.252962 0.846943 11.142227 1.802889 0.479822 -15.016799 -9.677906 21.107292 
-0.944208 44.164925 2.095703 3.176706 -2.437660 86.026566 0.000000 0.000000 0.000000 2.788212 -3.433440 5.633382 6.547909 -4.939789 -0.386412 -6.958427 1.477023 -12.012708 10.669246 19.970892 20.567457 -110.338875 -23.742367 1.465529 -39.612873 -9.775837 -42.625431 17.018679 11.028267 58.099831 -5.778056 -20.799414 22.217413 93.029617 46.543861 75.073112 12.650424 -2.445311 -52.306759 10.687596 -2.327719 -10.950116 -14.995785 5.192023 18.043015 31.324589 0.012494 -1.214112 4.880086 4.276639 -17.837433 13.335864 0.058406 0.950314 10.307953 1.659523 0.336743 -15.730559 -9.752293 21.175802 
-0.998688 44.108284 2.081052 2.649081 -2.536353 85.605026 0.000000 0.000000 0.000000 2.698581 -2.819141 5.765295 6.490062 -5.037400 -0.392342 -7.104956 1.475966 -11.948124 10.780402 19.502535 20.613754 -109.949005 -23.733583 1.263682 -39.439140 -9.693507 -42.517593 16.973461 10.985682 58.074318 -5.541076 -20.595783 22.330845 92.594788 46.859592 74.766983 12.384418 -2.066727 -52.158192 10.683455 -2.034619 -10.938903 -13.863935 5.466060 18.226505 23.233963 -1.909334 -1.162362 3.888117 5.344940 -17.244297 15.102382 0.605494 1.080516 9.827217 1.384274 0.253751 -16.397963 -9.750165 21.628574 
-1.006558 43.994160 2.004919 2.160178 -2.449432 85.131912 0.000000 0.000000 0.000000 2.775585 -2.253216 5.886584 6.382143 -5.030226 -0.391430 -7.221776 1.418742 -11.730095 10.743669 19.247967 20.677834 -109.676888 -23.544592 1.116277 -39.500111 -9.618396 -42.518581 17.012585 11.106162 58.119370 -5.366847 -20.262123 22.436230 92.004204 47.165607 74.369926 12.217281 -1.652407 -52.462490 10.568364 -1.864087 -10.946477 -12.659328 5.501455 18.335979 17.033239 -3.050180 -1.002936 2.802655 5.759226 -16.914040 16.879375 0.927454 1.172074 9.948368 1.220523 0.209479 -17.023466 -9.817336 22.602171 
-0.976871 43.848499 1.870739 1.749621 -2.430508 84.652000 0.000000 0.000000 0.000000 2.716078 -1.726575 6.001831 6.371312 -4.925025 -0.388339 -7.464565 1.201181 -11.576344 10.625319 19.038971 20.756836 -109.395721 -23.345379 0.962828 -39.609898 -9.662381 -42.622990 17.201042 11.179147 58.197712 -5.277999 -19.903379 22.514872 91.447525 47.366348 74.021080 12.121295 -1.214277 -53.094818 10.344154 -1.855186 -10.952541 -11.840109 5.404545 18.368128 13.485076 -3.438775 -0.857603 1.993220 5.498060 -16.490564 18.309210 0.995694 1.177699 10.680031 1.083678 0.244807 -17.657213 -9.855548 23.883236 
-0.875991 43.697693 1.682762 1.427005 -2.372312 84.081192 0.000000 0.000000 0.000000 2.549443 -1.258519 6.115643 6.536975 -4.824922 -0.381918 -7.766249 1.002573 -11.505374 10.595987 18.728346 20.820826 -109.057892 -23.114096 0.775239 -39.622658 -9.710291 -42.748165 17.316387 11.070325 58.205143 -5.180254 -19.530146 22.586979 90.984612 47.386894 73.748627 12.023419 -0.824439 -53.687069 10.079696 -1.818947 -10.971067 -11.127082 5.247851 18.372475 12.444884 -3.437313 -0.786388 1.661071 4.885898 -15.055333 19.584925 0.810388 1.122501 11.871069 1.013314 0.334799 -18.189209 -9.853184 25.470726 
